<svg xmlns="http://www.w3.org/2000/svg" viewBox="0 0 512 512"><title>Movies</title><g id="Movies"><g id="Movies-2" data-name="Movies"><path d="M255.9982,73.8247A182.1741,182.1741,0,0,0,73.8229,255.9955c0,100.6092,81.5625,182.18,182.1753,182.18a182.182,182.182,0,0,0,182.1789-182.18C438.1771,155.3872,356.6065,73.8247,255.9982,73.8247Zm91.3537,290.9709H164.6527a2.1006,2.1006,0,0,1-2.1006-2.1006v-214.19a2.1,2.1,0,0,1,2.1-2.1h182.7a2.1,2.1,0,0,1,2.1,2.1V362.696A2.1,2.1,0,0,1,347.3519,364.7956Z"/><path d="M304.057,269.9617H207.9507a.9566.9566,0,0,0-.9566.9566v65.4459a.9571.9571,0,0,0,.9571.9571h96.1057a.9571.9571,0,0,0,.9571-.9571V270.9187A.957.957,0,0,0,304.057,269.9617Z"/><rect x="176.782" y="210.9784" width="16.2774" height="18.9054"/><rect x="176.782" y="175.4086" width="16.2774" height="18.9054"/><rect x="176.782" y="317.686" width="16.2774" height="18.8964"/><rect x="176.782" y="282.1261" width="16.2774" height="18.8964"/><rect x="176.782" y="246.5473" width="16.2774" height="18.9054"/><path d="M304.057,173.8975H207.9511a.957.957,0,0,0-.957.957v65.428a.9566.9566,0,0,0,.9566.9566H304.057a.957.957,0,0,0,.957-.957V174.8545A.957.957,0,0,0,304.057,173.8975Z"/><rect x="319.0594" y="175.4086" width="16.2774" height="18.9054"/><rect x="319.0594" y="317.686" width="16.2774" height="18.8964"/><rect x="319.0594" y="210.9784" width="16.2774" height="18.9054"/><rect x="319.0594" y="282.1261" width="16.2774" height="18.8964"/><rect x="319.0594" y="246.5473" width="16.2774" height="18.9054"/></g></g></svg>